<svg width="120" height="120" viewBox="0 0 120 120" fill="none" xmlns="http://www.w3.org/2000/svg">
<g clip-path="url(#clip0_9419_8334)">
<path d="M17.3494 102.651H120V120H17.3494V102.651Z" fill="#C900AC"/>
<path d="M0.000211716 0H17.3496V102.651H0.000211716V0Z" fill="#F6517F"/>
<path d="M0.000211716 102.651H17.3496V120H0.000211716V102.651Z" fill="#7F35B2"/>
<g opacity="0.4">
<path d="M67.941 102.651H73.2036C73.0699 102.679 72.9325 102.708 72.7988 102.737H67.5217C67.6626 102.708 67.8036 102.679 67.9446 102.651H67.941Z" fill="black"/>
<path d="M109.681 102.651H113.718C113.613 102.679 113.512 102.708 113.407 102.737H109.366C109.471 102.708 109.576 102.679 109.681 102.651Z" fill="black"/>
<path d="M90.5349 102.651H94.959C94.8469 102.679 94.7313 102.708 94.6192 102.737H90.1879C90.3036 102.708 90.4228 102.679 90.5385 102.651H90.5349Z" fill="black"/>
<path d="M38.0386 102.651H45.188C45.0073 102.679 44.8193 102.708 44.6386 102.737H37.4422C37.641 102.708 37.8398 102.679 38.0386 102.651Z" fill="black"/>
<path d="M17.3496 110.79C35.946 108.625 52.399 105.857 67.5183 102.737H72.7954C56.2376 106.305 38.1255 109.475 17.346 111.889V110.79H17.3496Z" fill="#9E0085"/>
<path d="M60.0542 120C82.1855 115.424 101.382 110.1 120 104.74V105.867C102.875 110.794 85.2542 115.688 65.306 119.996H60.0542V120Z" fill="#9E0085"/>
<path d="M82.6735 120C95.7651 116.711 107.996 113.219 120 109.72V110.848C109.352 113.953 98.5193 117.047 87.0651 120H82.6699H82.6735Z" fill="#9E0085"/>
<path d="M29.906 120C60.9651 115.431 85.9626 109.222 109.366 102.737H113.407C90.6506 109.113 66.5964 115.29 37.0699 120H29.906Z" fill="#9E0085"/>
<path d="M120 119.671V120H118.901C119.27 119.892 119.635 119.779 120 119.671Z" fill="#9E0085"/>
<path d="M17.3495 116.259C45.6326 112.832 68.9603 108.032 90.1844 102.737H94.6157C72.2025 108.463 47.6097 113.693 17.3495 117.351V116.255V116.259Z" fill="#9E0085"/>
<path d="M101.704 120C107.91 118.251 113.982 116.476 120 114.698V115.829C115.272 117.224 110.508 118.619 105.676 120H101.704Z" fill="#9E0085"/>
<path d="M17.3495 105.325C24.3363 104.545 31.0158 103.677 37.4423 102.737H44.6387C36.0399 104.104 26.982 105.343 17.3495 106.42V105.329V105.325Z" fill="#9E0085"/>
<path d="M17.3496 111.889C11.7653 112.54 5.99298 113.133 0.000211716 113.667V112.572C5.99298 112.037 11.7653 111.441 17.3496 110.79V111.889Z" fill="#48086F"/>
<path d="M17.3496 117.351C11.7653 118.026 5.98937 118.648 0.000211716 119.208V118.117C5.99298 117.553 11.7653 116.931 17.3496 116.255V117.351Z" fill="#48086F"/>
<path d="M17.3496 106.42C11.7653 107.042 5.99298 107.613 0.000211716 108.119V107.028C5.98937 106.522 11.7653 105.951 17.3496 105.325V106.417V106.42Z" fill="#48086F"/>
<path d="M17.3496 89.9747C11.7653 90.5205 5.98937 91.0048 0.000211716 91.4313V90.3397C5.98937 89.9169 11.7653 89.4289 17.3496 88.8831V89.9747Z" fill="#A61932"/>
<path d="M17.3496 100.941C11.7653 101.537 5.98937 102.079 0.000211716 102.557V101.469C5.98937 100.988 11.7653 100.446 17.3496 99.8494V100.941Z" fill="#A61932"/>
<path d="M17.3496 73.4639C11.7653 73.9301 5.98937 74.3386 0.000211716 74.6783V73.5904C5.98937 73.2506 11.7653 72.8422 17.3496 72.3759V73.4675V73.4639Z" fill="#A61932"/>
<path d="M17.3496 84.4735C11.7653 84.9904 5.98937 85.4494 0.000211716 85.847V84.7591C5.98937 84.3615 11.7653 83.9024 17.3496 83.382V84.4735Z" fill="#A61932"/>
<path d="M17.3496 78.9723C11.7653 79.4639 5.98937 79.8976 0.000211716 80.2663V79.1783C5.98937 78.8097 11.7653 78.3759 17.3496 77.8807V78.9723Z" fill="#A61932"/>
<path d="M17.3496 95.4579C11.7653 96.0289 5.98937 96.5422 0.000211716 96.994V95.9024C5.98937 95.4506 11.7653 94.9338 17.3496 94.3627V95.4542V95.4579Z" fill="#A61932"/>
<path d="M17.3496 0.173492V1.25783C11.758 1.37711 5.98575 1.42771 0.000211716 1.39879V0.314456C5.98575 0.343372 11.7617 0.29277 17.3496 0.173492Z" fill="#A61932"/>
<path d="M17.3496 18.0217C11.7617 18.2205 5.98575 18.3542 0.000211716 18.4121V17.3241C5.98575 17.2663 11.7617 17.1325 17.3496 16.9337V18.0217Z" fill="#A61932"/>
<path d="M17.3496 29.1615C11.7617 29.4145 5.98575 29.6024 0.000211716 29.7181V28.6337C5.98575 28.5181 11.7617 28.3301 17.3496 28.0771V29.1651V29.1615Z" fill="#A61932"/>
<path d="M17.3496 12.4409C11.7617 12.6144 5.98575 12.7156 0.000211716 12.7482V11.6602C5.98575 11.6313 11.7617 11.5265 17.3496 11.353V12.4409Z" fill="#A61932"/>
<path d="M17.3496 23.5952C11.7617 23.8229 5.98575 23.9819 0.000211716 24.0687V22.9843C5.98575 22.8976 11.7617 22.7349 17.3496 22.5108V23.5988V23.5952Z" fill="#A61932"/>
<path d="M17.3496 67.9482C11.7653 68.3891 5.98937 68.7687 0.000211716 69.0795V67.9916C5.98937 67.6771 11.7653 67.2976 17.3496 66.8602V67.9482Z" fill="#A61932"/>
<path d="M17.3496 6.85661C11.7617 7.00119 5.98575 7.0771 0.000211716 7.08071V5.99276C5.98214 5.99276 11.7617 5.91686 17.3496 5.77228V6.85661Z" fill="#A61932"/>
<path d="M17.3496 56.8952C11.7653 57.2819 5.98575 57.6072 0.000211716 57.8638V56.7759C5.98937 56.5193 11.7653 56.194 17.3496 55.8072V56.8952Z" fill="#A61932"/>
<path d="M17.3496 51.3578C11.7617 51.7193 5.98937 52.0156 0.000211716 52.2434V51.159C5.98937 50.9313 11.7617 50.6313 17.3496 50.2699V51.3578Z" fill="#A61932"/>
<path d="M17.3496 62.4217C11.7653 62.8337 5.98937 63.1879 0.000211716 63.4699V62.3819C5.98575 62.0964 11.7653 61.7458 17.3496 61.3301V62.4181V62.4217Z" fill="#A61932"/>
<path d="M17.3496 45.8241C11.7653 46.1566 5.98575 46.4277 0.000211716 46.6265V45.5386C5.98575 45.3398 11.7653 45.0687 17.3496 44.7325V45.8241Z" fill="#A61932"/>
<path d="M17.3496 40.2723C11.7653 40.5795 5.98575 40.8217 0.000211716 40.9916V39.9072C5.98575 39.7337 11.7653 39.4916 17.3496 39.1843V40.2723Z" fill="#A61932"/>
<path d="M17.3496 34.7241C11.7617 35.0024 5.98575 35.2193 0.000211716 35.3602V34.2759C5.98575 34.1313 11.7653 33.9181 17.3496 33.6361V34.7241Z" fill="#A61932"/>
</g>
</g>
<defs>
<clipPath id="clip0_9419_8334">
<rect width="120" height="120" fill="white" transform="matrix(-1 0 0 1 120 0)"/>
</clipPath>
</defs>
</svg>
